<svg width="30" height="24" viewBox="0 0 30 24" fill="none" xmlns="http://www.w3.org/2000/svg">
<path d="M15 6.21054C16.308 6.21054 17.6603 5.97893 18.6118 5.53523C18.6898 5.52378 18.7651 5.48926 18.8251 5.42948C19.4796 5.07804 19.8967 4.61178 19.8967 4.03816C19.8967 2.62717 17.3737 1.86578 14.9999 1.86578C12.626 1.86578 10.1031 2.62717 10.1031 4.03816C10.1031 5.44915 12.6261 6.21054 15 6.21054ZM14.4357 5.43312C14.4212 5.41074 14.4046 5.38936 14.385 5.36977L12.086 3.0707C12.4089 2.9535 12.7911 2.85148 13.2267 2.77498L15.866 5.4143C15.5916 5.4355 15.3029 5.44737 14.9999 5.44737C14.8059 5.44729 14.6182 5.44211 14.4357 5.43312ZM19.1335 4.03816C19.1335 4.23779 18.9521 4.46405 18.6129 4.67607L16.6989 2.76209C18.2381 3.01837 19.1335 3.59429 19.1335 4.03816ZM15.4973 2.63989L17.8766 5.01927C17.5741 5.12647 17.2208 5.22009 16.8223 5.29252C16.82 5.29014 16.8184 5.28734 16.8161 5.28497L14.1893 2.65821C14.4472 2.63963 14.7171 2.62912 15 2.62912C15.1702 2.62903 15.3359 2.63293 15.4973 2.63989ZM11.3561 3.42027L13.2396 5.30371C11.7381 5.0426 10.8665 4.47618 10.8665 4.03816C10.8665 3.8448 11.0373 3.62643 11.3561 3.42027Z" fill="#A4ACAD"/>
<path d="M7.66428 12.5709C10.0382 12.5709 12.561 11.8096 12.561 10.3986C12.561 8.98758 10.0382 8.2262 7.66428 8.2262C5.29041 8.2262 2.76753 8.98758 2.76753 10.3986C2.76753 11.8096 5.29041 12.5709 7.66428 12.5709ZM5.00071 11.4499L6.5312 10.2137L8.1163 11.7988C7.96924 11.8046 7.81863 11.8077 7.6642 11.8077C6.58658 11.8077 5.68484 11.6621 5.00071 11.4499ZM11.7978 10.3986C11.7978 10.8663 10.8034 11.4804 9.10971 11.7127L8.43338 11.0364L10.3838 9.36463C11.2906 9.65585 11.7978 10.0645 11.7978 10.3986ZM9.4714 9.1415L7.89215 10.4952L6.45233 9.05534C6.82632 9.01345 7.23076 8.98945 7.66428 8.98945C8.33916 8.98945 8.94451 9.04686 9.4714 9.1415ZM5.52566 9.20816L5.98853 9.67103L4.20753 11.1095L4.23195 11.1397C3.77714 10.8996 3.53078 10.631 3.53078 10.3986C3.53078 9.9988 4.25722 9.49217 5.52566 9.20816Z" fill="#A4ACAD"/>
<path d="M22.6949 6.36479V4.03849C22.6949 4.03739 22.6946 4.03646 22.6946 4.03536C22.6918 1.77232 19.3129 6.10352e-05 15 6.10352e-05C10.6852 6.10352e-05 7.3053 1.77385 7.3053 4.03824C7.3053 4.03833 7.3053 4.03841 7.3053 4.03849V4.03858V6.36488C3.16358 6.46003 -0.030365 8.19735 -0.030365 10.3986V19.9618C-0.030365 22.2262 3.34947 24 7.66428 24C11.1482 24 14.0221 22.8434 15 21.2061C15.9778 22.8434 18.8517 24 22.3357 24C26.6505 24 30.0304 22.2263 30.0304 19.9618V10.3986C30.0304 8.19744 26.8366 6.46011 22.6949 6.36479ZM29.2671 10.3986C29.2671 12.1738 26.0928 13.6735 22.3357 13.6735C18.5786 13.6735 15.4042 12.1738 15.4042 10.3986C15.4042 8.62333 18.5785 7.12363 22.3356 7.12363C26.0928 7.12363 29.2671 8.62342 29.2671 10.3986ZM21.2853 6.39634C21.5299 6.21528 21.7462 6.0226 21.9317 5.82017V6.36564C21.7134 6.37132 21.4979 6.38175 21.2853 6.39634ZM15 9.15438C14.7587 8.75045 14.4024 8.3757 13.9496 8.04038C14.2925 8.06395 14.6429 8.07633 15 8.07633C15.357 8.07633 15.7074 8.06395 16.0503 8.04038C15.5975 8.37561 15.2411 8.75037 15 9.15438ZM15 0.763225C18.7572 0.763225 21.9314 2.26292 21.9314 4.03816C21.9314 5.81339 18.7572 7.31309 15 7.31309C11.2427 7.31309 8.06855 5.81339 8.06855 4.03816C8.06855 2.26292 11.2427 0.763225 15 0.763225ZM8.7146 6.39634C8.50208 6.38175 8.28676 6.37124 8.06855 6.36564V5.82043C8.25394 6.02286 8.47019 6.21537 8.7146 6.39634ZM7.66428 7.12363C11.4215 7.12363 14.5957 8.62333 14.5957 10.3986C14.5957 12.1738 11.4215 13.6735 7.66428 13.6735C3.90707 13.6735 0.732884 12.1738 0.732884 10.3986C0.732884 8.62333 3.90707 7.12363 7.66428 7.12363ZM7.66428 23.2367C3.90707 23.2367 0.732884 21.737 0.732884 19.9618V12.1809C1.96672 13.5279 4.57584 14.4367 7.66428 14.4367C10.7527 14.4367 13.3619 13.5279 14.5957 12.1808V19.9618C14.5957 21.737 11.4215 23.2367 7.66428 23.2367ZM29.2671 19.9618C29.2671 21.737 26.0928 23.2367 22.3357 23.2367C18.5786 23.2367 15.4042 21.737 15.4042 19.9618V12.1809C16.6381 13.5279 19.2472 14.4367 22.3356 14.4367C25.4241 14.4367 28.0332 13.5279 29.267 12.1809V19.9618H29.2671Z" fill="#A4ACAD"/>
<path d="M17.4389 10.3986C17.4389 11.8096 19.9618 12.5709 22.3356 12.5709C24.7094 12.5709 27.2324 11.8096 27.2324 10.3986C27.2324 8.98758 24.7094 8.2262 22.3356 8.2262C19.9618 8.2262 17.4389 8.98758 17.4389 10.3986ZM26.4692 10.3986C26.4692 10.987 24.8967 11.8077 22.3357 11.8077C19.7748 11.8077 18.2022 10.987 18.2022 10.3986C18.2022 9.81011 19.7748 8.98945 22.3357 8.98945C24.8967 8.98945 26.4692 9.81019 26.4692 10.3986Z" fill="#A4ACAD"/>
<path d="M19.7434 10.4028C19.7434 11.1684 21.3675 11.2827 22.3356 11.2827C23.3038 11.2827 24.9278 11.1684 24.9278 10.4028C24.9278 9.63727 23.3038 9.52287 22.3356 9.52287C21.3675 9.52287 19.7434 9.63727 19.7434 10.4028ZM22.3356 10.5194C21.744 10.5194 21.2756 10.4667 20.9508 10.4028C21.2756 10.339 21.744 10.2861 22.3356 10.2861C22.9271 10.2861 23.3956 10.3389 23.7203 10.4028C23.3956 10.4667 22.9272 10.5194 22.3356 10.5194Z" fill="#A4ACAD"/>
</svg>
