<svg width="28" height="28" viewBox="0 0 28 28" fill="none" xmlns="http://www.w3.org/2000/svg">
<path d="M26.0465 1.23186C24.4063 -0.408056 21.7474 -0.408056 20.1072 1.23186L6.3844 14.9547C4.99246 16.3508 4.75712 18.5264 5.81834 20.1879L0.41107 25.5956C0.0074999 25.9984 -0.113354 26.6048 0.104956 27.1316C0.323266 27.6584 0.837659 28.0015 1.40787 28.0008C1.78161 28.0021 2.14034 27.8539 2.4042 27.5892L7.81147 22.1815C9.47218 23.2466 11.6506 23.0109 13.0451 21.6154L26.7679 7.89259C28.4056 6.25132 28.4056 3.59413 26.7679 1.95286L26.0465 1.23186ZM1.74434 26.9275C1.55542 27.1061 1.25985 27.1061 1.07094 26.9275C0.88617 26.741 0.88617 26.4405 1.07094 26.2541L6.40774 20.9182L7.0816 21.5916L1.74434 26.9275ZM26.1081 7.23413L12.3853 20.9541C11.7726 21.5668 10.9417 21.911 10.0753 21.911C9.20884 21.911 8.3779 21.5668 7.76527 20.9541L7.04567 20.2345C5.77212 18.9578 5.77212 16.8912 7.04567 15.6145L20.7657 1.89173C22.0421 0.6174 24.1093 0.6174 25.3857 1.89173L26.1081 2.61413C27.3821 3.89061 27.3821 5.95764 26.1081 7.23413Z" fill="#A4ACAD"/>
<path d="M23.0781 1.90352C22.4539 1.90128 21.8549 2.14919 21.4149 2.59185L19.0815 4.92518C18.9553 5.04104 18.9027 5.21675 18.9445 5.3829C18.9864 5.54905 19.1159 5.67893 19.2819 5.72122C19.4479 5.76351 19.6238 5.71142 19.74 5.58552L22.0733 3.25218C22.6353 2.71719 23.5181 2.71719 24.08 3.25218C24.2631 3.42904 24.5542 3.42651 24.7342 3.2465C24.9142 3.06649 24.9167 2.77543 24.7399 2.59232C24.3 2.15028 23.7017 1.9023 23.0781 1.90352Z" fill="#A4ACAD"/>
<path d="M17.0772 8.0556C17.201 8.05557 17.3196 8.00639 17.4071 7.91887L18.4072 6.9188C18.5285 6.80163 18.5772 6.62812 18.5345 6.46496C18.4918 6.3018 18.3643 6.17438 18.2012 6.13168C18.038 6.08897 17.8645 6.13762 17.7473 6.25893L16.7473 7.259C16.6138 7.39247 16.5739 7.59315 16.6461 7.76751C16.7184 7.94186 16.8885 8.05556 17.0772 8.0556Z" fill="#A4ACAD"/>
<path d="M15.7435 9.58952C15.8783 9.45474 15.9187 9.25199 15.8457 9.07584C15.7728 8.89968 15.6009 8.78482 15.4103 8.78482C15.2196 8.78482 15.0477 8.89968 14.9748 9.07584C14.9018 9.25199 14.9422 9.45474 15.0771 9.58952C15.2611 9.77348 15.5594 9.77348 15.7435 9.58952Z" fill="#A4ACAD"/>
<path d="M18.7474 11.9266L12.0801 18.5939C11.9588 18.711 11.9102 18.8845 11.9529 19.0477C11.9956 19.2109 12.123 19.3383 12.2862 19.381C12.4493 19.4237 12.6228 19.375 12.74 19.2537L19.4073 12.5865C19.5841 12.4033 19.5816 12.1123 19.4016 11.9323C19.2216 11.7523 18.9305 11.7497 18.7474 11.9266Z" fill="#A4ACAD"/>
</svg>
